<svg width="20" height="15" viewBox="0 0 20 15" fill="none" xmlns="http://www.w3.org/2000/svg">
<path d="M19.0138 2.9799C18.9166 2.59162 18.7187 2.23586 18.44 1.94856C18.1613 1.66125 17.8118 1.45258 17.4266 1.34362C16.0194 1 10.3906 1 10.3906 1C10.3906 1 4.76183 1 3.35463 1.37634C2.96949 1.48531 2.61992 1.69398 2.34124 1.98128C2.06255 2.26858 1.86462 2.62434 1.76744 3.01262C1.5099 4.44073 1.38392 5.88945 1.39109 7.34058C1.38191 8.80263 1.5079 10.2624 1.76744 11.7013C1.87458 12.0775 2.07694 12.4197 2.35498 12.6949C2.63301 12.97 2.97732 13.1689 3.35463 13.2721C4.76183 13.6484 10.3906 13.6484 10.3906 13.6484C10.3906 13.6484 16.0194 13.6484 17.4266 13.2721C17.8118 13.1631 18.1613 12.9545 18.44 12.6672C18.7187 12.3799 18.9166 12.0241 19.0138 11.6358C19.2694 10.2185 19.3953 8.78078 19.3902 7.34058C19.3993 5.87853 19.2734 4.41876 19.0138 2.9799V2.9799Z" stroke="white" stroke-linecap="round" stroke-linejoin="round"/>
<path d="M8.5498 10.0157L13.2541 7.34035L8.5498 4.66504V10.0157Z" stroke="white" stroke-linecap="round" stroke-linejoin="round"/>
</svg>
