<svg width="17" height="16" viewBox="0 0 17 16" fill="none" xmlns="http://www.w3.org/2000/svg">
<path d="M11.8906 5.5C13.0841 5.5 14.2287 5.97411 15.0726 6.81802C15.9165 7.66193 16.3906 8.80653 16.3906 10V15.25H13.3906V10C13.3906 9.60218 13.2326 9.22064 12.9513 8.93934C12.67 8.65804 12.2884 8.5 11.8906 8.5C11.4928 8.5 11.1113 8.65804 10.83 8.93934C10.5487 9.22064 10.3906 9.60218 10.3906 10V15.25H7.39062V10C7.39062 8.80653 7.86473 7.66193 8.70864 6.81802C9.55256 5.97411 10.6972 5.5 11.8906 5.5V5.5Z" stroke="white" stroke-linecap="round" stroke-linejoin="round"/>
<path d="M4.39062 6.25H1.39062V15.25H4.39062V6.25Z" stroke="white" stroke-linecap="round" stroke-linejoin="round"/>
<path d="M2.89062 4C3.71905 4 4.39062 3.32843 4.39062 2.5C4.39062 1.67157 3.71905 1 2.89062 1C2.0622 1 1.39062 1.67157 1.39062 2.5C1.39062 3.32843 2.0622 4 2.89062 4Z" stroke="white" stroke-linecap="round" stroke-linejoin="round"/>
</svg>
